<svg width="77" height="76" viewBox="0 0 77 76" fill="none" xmlns="http://www.w3.org/2000/svg">
<path d="M5.2 75L5.2 18.2L48.64 18.2L48.64 31.56L20.8 31.56L20.8 40.2L33.28 40.2C39.7867 40.2 44.72 41.72 48.08 44.76C51.44 47.8 53.12 51.96 53.12 57.24C53.12 62.7333 51.52 67.08 48.32 70.28C45.12 73.4267 40.3733 75 34.08 75L5.2 75ZM20.8 61.64L31.76 61.64C33.7333 61.64 35.12 61.1333 35.92 60.12C36.72 59.1067 37.12 57.9867 37.12 56.76C37.12 55.5333 36.7467 54.4667 36 53.56C35.3067 52.6 33.8667 52.12 31.68 52.12L20.8 52.12L20.8 61.64Z" fill="black"/>
<g clip-path="url(#clip0_10:535)">
<path d="M61.6618 57.7566C60.3605 55.0914 57.7173 53.1763 54.5908 52.6339C51.4643 52.0915 48.3599 53.0096 46.2867 55.0894L41.2902 60.1008C40.4612 60.9321 39.9716 61.974 39.8742 63.1128C39.7768 64.2518 40.081 65.381 40.7537 66.379C41.4272 67.3763 42.4059 68.148 43.5841 68.6106C44.7623 69.0732 46.0294 69.1828 47.2482 68.9278L47.3298 68.9104C50.3929 68.2917 53.6833 68.8731 56.3715 70.5105C57.065 70.9328 57.8261 71.2176 58.6186 71.355C59.0495 71.4298 59.4901 71.4609 59.9339 71.4472C61.1938 71.4078 62.3631 71.0088 63.3156 70.2933C64.2674 69.5779 64.9128 68.6132 65.1816 67.5036C65.4505 66.394 65.3175 65.2444 64.7974 64.1785L61.6618 57.7566Z" fill="white"/>
<path d="M43.3171 54.5665C44.5948 54.3576 45.6568 53.6385 46.3072 52.5416C46.9263 51.4978 47.0962 50.2276 46.7855 48.9647C46.4743 47.7025 45.7167 46.5848 44.652 45.8171C43.5336 45.0109 42.2141 44.6823 40.9382 44.8923C38.3717 45.3127 36.8163 47.8252 37.4712 50.4944C37.9955 52.6194 39.7661 54.2106 41.7616 54.5567C42.2711 54.6451 42.7954 54.6523 43.3171 54.5665Z" fill="white"/>
<path d="M51.9354 51.4563C54.9726 51.9832 57.8566 49.8746 58.3642 46.756C58.8719 43.6365 56.8139 40.6701 53.7767 40.1432C50.7398 39.6164 47.8561 41.7255 47.3483 44.8449C46.8407 47.9636 48.8985 50.9295 51.9354 51.4563Z" fill="white"/>
<path d="M61.222 54.4961L61.2223 54.4961C61.6668 54.7169 62.1325 54.8664 62.6072 54.9488C64.8221 55.333 67.2172 54.2545 68.4043 52.1644C69.0879 50.9613 69.2779 49.5968 68.9393 48.3225C68.5852 46.9884 67.7017 45.9114 66.4515 45.2897C65.2009 44.6679 63.7526 44.5855 62.3729 45.0573C61.0549 45.5079 59.9529 46.4188 59.27 47.622C57.8287 50.1601 58.7044 53.2438 61.222 54.4961Z" fill="white"/>
<path d="M72.9292 55.8483L72.9285 55.8474C71.0609 54.0896 67.8301 54.1506 65.7257 55.984C63.623 57.8187 63.4293 60.7421 65.2935 62.5004C65.9733 63.142 66.8349 63.5417 67.7573 63.7017C69.3649 63.9806 71.1578 63.5312 72.4972 62.3653C74.5997 60.5305 74.7936 57.6072 72.9292 55.8483Z" fill="white"/>
</g>
<defs>
<clipPath id="clip0_10:535">
<rect width="38.0593" height="34.2414" fill="white" transform="matrix(0.985284 0.170925 -0.160646 0.987012 39.5007 35.4947)"/>
</clipPath>
</defs>
</svg>
